<svg width="20" height="20" viewBox="0 0 20 20" fill="none" xmlns="http://www.w3.org/2000/svg">
<path d="M0 8C0 3.58172 3.58172 0 8 0H12C16.4183 0 20 3.58172 20 8V12C20 16.4183 16.4183 20 12 20H8C3.58172 20 0 16.4183 0 12V8Z" fill="#0B3A6F" fill-opacity="0.09"/>
<g clip-path="url(#clip0_6487_39033)">
<path d="M8.24736 7.20623C8.33525 7.25631 8.3877 7.3039 8.41826 7.40322C8.4372 7.51901 8.41908 7.59733 8.35341 7.6939C8.3247 7.73009 8.29486 7.76442 8.2643 7.79903C8.20434 7.86862 8.1565 7.94147 8.11064 8.0209C8.09813 8.04254 8.09813 8.04254 8.08537 8.06463C7.43486 9.20971 6.68964 11.147 6.87529 12.4813C6.97947 12.3954 7.06811 12.3077 7.14873 12.1994C7.15938 12.1852 7.17004 12.171 7.18102 12.1564C7.54881 11.6608 7.85809 11.1238 8.16723 10.5906C9.00375 9.14821 9.00375 9.14821 9.28274 9.07063C9.38703 9.0538 9.45794 9.06824 9.55107 9.12197C9.62167 9.18337 9.66164 9.2244 9.6733 9.31924C9.67853 9.4601 9.63968 9.55925 9.57915 9.68472C9.42058 10.031 9.22087 10.4696 9.27763 10.8603C9.30512 10.9057 9.30512 10.9057 9.33623 10.9384C9.54913 10.9293 9.69721 10.7653 9.84404 10.6259C9.85897 10.6118 9.8739 10.5976 9.88928 10.5831C9.96539 10.5091 10.0352 10.4328 10.1016 10.35C10.598 9.73185 10.598 9.73185 10.8632 9.70058C10.9599 9.69707 11.0348 9.6994 11.1246 9.73721C11.1977 9.81224 11.2481 9.88276 11.252 9.99035C11.2456 10.0671 11.231 10.1367 11.21 10.2108C11.1787 10.3256 11.1815 10.4495 11.1917 10.5673C11.2046 10.5866 11.2175 10.606 11.2308 10.6259C11.4619 10.598 11.647 10.4236 11.8222 10.2818C12.6563 9.60991 13.6354 9.01984 14.7464 9.06338C14.8317 9.08126 14.8899 9.10855 14.9502 9.17202C15.0136 9.27093 15.009 9.35788 15.0003 9.47353C14.9723 9.56398 14.9341 9.60598 14.8512 9.65147C14.749 9.68989 14.6371 9.68935 14.5291 9.69692C14.2825 9.71733 14.0464 9.75348 13.8089 9.8251C13.7956 9.82909 13.7823 9.83308 13.7686 9.83719C13.4056 9.95062 13.0611 10.1499 12.7542 10.372C12.74 10.3822 12.7258 10.3924 12.7112 10.4029C12.5569 10.5146 12.4044 10.6286 12.2538 10.7451C11.5459 11.2922 11.5459 11.2922 11.1722 11.2509C10.9976 11.2224 10.8432 11.1728 10.7272 11.0332C10.6678 10.9477 10.6234 10.8596 10.5862 10.7626C10.5305 10.8171 10.4768 10.8727 10.4246 10.9306C10.1667 11.2153 9.85819 11.526 9.45341 11.5634C9.43929 11.5647 9.42516 11.5661 9.41061 11.5675C9.21155 11.5768 9.01785 11.5194 8.86748 11.3876C8.79063 11.3076 8.74302 11.2196 8.6981 11.1187C8.68952 11.0995 8.68095 11.0803 8.67211 11.0605C8.66568 11.046 8.65925 11.0315 8.65263 11.0165C8.64421 11.0304 8.63579 11.0443 8.62711 11.0586C8.54836 11.1886 8.46949 11.3186 8.39048 11.4484C8.35312 11.5098 8.31579 11.5713 8.27861 11.6328C8.06495 11.9862 7.84825 12.3429 7.57841 12.6571C7.55749 12.6816 7.55749 12.6816 7.53615 12.7066C7.37591 12.8894 7.1814 13.1065 6.92282 13.1305C6.74494 13.1349 6.60115 13.1082 6.46757 12.9843C6.19898 12.6873 6.23401 12.2271 6.25029 11.8563C6.35172 10.4732 6.90651 8.25263 7.91044 7.24697C8.02202 7.18087 8.12422 7.15621 8.24736 7.20623Z" fill="#274463"/>
<path d="M14.8491 11.9183C14.9188 11.9642 14.9632 12.0159 15.0005 12.0904C15.0025 12.1262 15.0032 12.1622 15.0033 12.1981C15.0036 12.2324 15.0036 12.2324 15.0038 12.2675C15.0038 12.2927 15.0039 12.318 15.0039 12.344C15.0041 12.3707 15.0042 12.3975 15.0043 12.4242C15.0047 12.497 15.0049 12.5698 15.005 12.6426C15.0051 12.6881 15.0052 12.7336 15.0054 12.7791C15.0057 12.9214 15.006 13.0637 15.0062 13.206C15.0064 13.3703 15.0069 13.5345 15.0077 13.6988C15.0083 13.8258 15.0086 13.9527 15.0086 14.0797C15.0087 14.1555 15.0088 14.2313 15.0093 14.3072C15.0098 14.3785 15.0099 14.4499 15.0097 14.5213C15.0097 14.5599 15.01 14.5985 15.0104 14.6371C15.0091 14.8528 15.0091 14.8528 14.9223 14.9419C14.8492 14.9941 14.7994 15.0079 14.7099 15.0081C14.6755 15.0084 14.6755 15.0084 14.6403 15.0087C14.6153 15.0086 14.5902 15.0085 14.5645 15.0084C14.5377 15.0085 14.5109 15.0087 14.4842 15.0088C14.4116 15.0092 14.3391 15.0092 14.2665 15.0091C14.2059 15.009 14.1453 15.0091 14.0846 15.0092C13.9416 15.0095 13.7986 15.0095 13.6555 15.0093C13.5081 15.009 13.3606 15.0093 13.2131 15.0098C13.0864 15.0103 12.9597 15.0104 12.833 15.0103C12.7574 15.0102 12.6817 15.0103 12.6061 15.0106C12.535 15.0109 12.4639 15.0108 12.3927 15.0104C12.3543 15.0103 12.3158 15.0106 12.2773 15.0109C12.0671 15.0092 12.0671 15.0092 11.9731 14.9224C11.9038 14.8436 11.8892 14.7746 11.8907 14.6697C11.9013 14.5697 11.9569 14.4972 12.0317 14.4341C12.0891 14.415 12.1258 14.4122 12.1856 14.4123C12.2052 14.4122 12.2249 14.4122 12.2451 14.4122C12.2666 14.4122 12.2881 14.4123 12.3103 14.4124C12.3443 14.4124 12.3443 14.4124 12.379 14.4124C12.4542 14.4124 12.5293 14.4125 12.6045 14.4127C12.6565 14.4127 12.7085 14.4128 12.7605 14.4128C12.8836 14.4128 13.0066 14.413 13.1297 14.4132C13.2698 14.4134 13.4099 14.4135 13.55 14.4136C13.8382 14.4138 14.1264 14.4142 14.4145 14.4146C14.4145 14.4027 14.4144 14.3909 14.4143 14.3786C14.4126 14.0896 14.4113 13.8006 14.4105 13.5116C14.4101 13.3718 14.4095 13.232 14.4086 13.0922C14.4079 12.9704 14.4074 12.8486 14.4072 12.7267C14.4071 12.6622 14.4068 12.5977 14.4063 12.5332C14.4057 12.4612 14.4056 12.3891 14.4057 12.317C14.4054 12.2957 14.4051 12.2744 14.4048 12.2525C14.4055 12.1334 14.413 12.0638 14.4927 11.9732C14.5979 11.8808 14.7206 11.8713 14.8491 11.9183Z" fill="#274463"/>
<path d="M5.43482 11.9187C5.5045 11.9646 5.54893 12.0163 5.58619 12.0908C5.588 12.1217 5.58857 12.1527 5.58854 12.1837C5.58856 12.2033 5.58859 12.2229 5.58862 12.2432C5.58855 12.2647 5.58848 12.2863 5.58841 12.3086C5.58841 12.3313 5.58841 12.3539 5.58841 12.3773C5.5884 12.4525 5.58825 12.5278 5.5881 12.603C5.58806 12.6551 5.58803 12.7071 5.58801 12.7592C5.58795 12.8824 5.58779 13.0056 5.58759 13.1288C5.58738 13.269 5.58727 13.4092 5.58717 13.5495C5.58697 13.838 5.58662 14.1265 5.58619 14.415C5.59806 14.4149 5.60993 14.4149 5.62216 14.4148C5.91118 14.4131 6.20021 14.4118 6.48924 14.411C6.62901 14.4106 6.76878 14.41 6.90855 14.4091C7.0304 14.4083 7.15224 14.4078 7.27409 14.4077C7.33859 14.4076 7.40308 14.4073 7.46758 14.4068C7.53964 14.4062 7.61169 14.4061 7.68375 14.4061C7.70506 14.4059 7.72637 14.4056 7.74833 14.4053C7.86738 14.4059 7.93702 14.4135 8.02759 14.4931C8.09685 14.5719 8.11165 14.6409 8.10992 14.7459C8.1006 14.8351 8.06225 14.8896 7.99708 14.9485C7.92573 14.9979 7.88904 15.0035 7.80269 15.0038C7.76835 15.004 7.76835 15.004 7.73332 15.0042C7.70808 15.0043 7.68283 15.0044 7.65682 15.0044C7.63007 15.0045 7.60331 15.0047 7.57656 15.0048C7.50376 15.0051 7.43096 15.0053 7.35816 15.0055C7.31267 15.0056 7.26719 15.0057 7.2217 15.0058C7.0794 15.0062 6.93709 15.0065 6.79478 15.0067C6.63051 15.0068 6.46625 15.0074 6.30198 15.0082C6.17502 15.0087 6.04807 15.009 5.92111 15.0091C5.84528 15.0091 5.76945 15.0093 5.69362 15.0098C5.62225 15.0103 5.55089 15.0103 5.47951 15.0101C5.44091 15.0101 5.40231 15.0105 5.36371 15.0109C5.14794 15.0096 5.14794 15.0096 5.05884 14.9228C5.00661 14.8496 4.99291 14.7998 4.99281 14.7103C4.99264 14.6873 4.99248 14.6643 4.99231 14.6406C4.99243 14.6155 4.99255 14.5904 4.99267 14.5646C4.99259 14.5378 4.99248 14.511 4.99236 14.4842C4.99209 14.4116 4.99219 14.339 4.99238 14.2663C4.99253 14.1903 4.99239 14.1142 4.9923 14.0381C4.99219 13.9104 4.99233 13.7827 4.99261 13.6549C4.99293 13.5073 4.99283 13.3597 4.9925 13.2121C4.99224 13.0853 4.9922 12.9585 4.99235 12.8316C4.99245 12.7559 4.99246 12.6802 4.99226 12.6045C4.99209 12.5333 4.99221 12.4622 4.99255 12.391C4.99267 12.3525 4.99249 12.3139 4.99231 12.2754C4.99247 12.2524 4.99264 12.2294 4.99281 12.2057C4.99283 12.1857 4.99285 12.1658 4.99288 12.1452C5.00476 12.0575 5.04286 12.0075 5.10767 11.9492C5.21005 11.8775 5.32078 11.877 5.43482 11.9187Z" fill="#274463"/>
<path d="M12.2004 4.99534C12.2348 4.99513 12.2348 4.99513 12.2698 4.99492C12.3076 4.99484 12.3076 4.99484 12.3461 4.99476C12.3729 4.99464 12.3996 4.99451 12.4264 4.99437C12.5143 4.99396 12.6022 4.99376 12.6901 4.99356C12.7203 4.99349 12.7506 4.99341 12.7809 4.99332C12.9231 4.99295 13.0653 4.99267 13.2075 4.99251C13.3716 4.99232 13.5357 4.99181 13.6998 4.99102C13.8267 4.99043 13.9535 4.99014 14.0804 4.99007C14.1562 4.99003 14.2319 4.98985 14.3077 4.98936C14.379 4.98891 14.4503 4.98882 14.5216 4.98902C14.5601 4.98904 14.5987 4.98867 14.6372 4.98828C14.8527 4.98955 14.8527 4.98955 14.9419 5.07634C14.994 5.14951 15.0078 5.19934 15.008 5.28876C15.0082 5.31173 15.0084 5.33471 15.0086 5.35838C15.0085 5.38341 15.0085 5.40844 15.0084 5.43423C15.0085 5.461 15.0086 5.48776 15.0088 5.51452C15.0091 5.58708 15.0091 5.65963 15.009 5.73219C15.0089 5.79281 15.009 5.85344 15.0092 5.91406C15.0094 6.0571 15.0094 6.20014 15.0092 6.34318C15.009 6.49064 15.0092 6.63809 15.0098 6.78555C15.0102 6.91226 15.0103 7.03897 15.0102 7.16568C15.0101 7.24132 15.0102 7.31694 15.0105 7.39257C15.0108 7.46371 15.0107 7.53483 15.0104 7.60596C15.0103 7.64443 15.0106 7.68289 15.0108 7.72135C15.0091 7.93159 15.0091 7.93159 14.9223 8.02556C14.8435 8.09482 14.7746 8.10962 14.6696 8.10788C14.5804 8.09857 14.5258 8.06022 14.467 7.99504C14.4209 7.92845 14.4121 7.89551 14.4122 7.81544C14.4121 7.78603 14.4121 7.78603 14.4121 7.75602C14.4122 7.73442 14.4122 7.71283 14.4123 7.69058C14.4123 7.66791 14.4123 7.64523 14.4123 7.62187C14.4123 7.54663 14.4125 7.47138 14.4126 7.39614C14.4127 7.34408 14.4127 7.29203 14.4127 7.23998C14.4128 7.11678 14.4129 6.99359 14.4131 6.87039C14.4133 6.73016 14.4135 6.58992 14.4136 6.44969C14.4138 6.16118 14.4141 5.87267 14.4145 5.58416C14.4027 5.58423 14.3908 5.5843 14.3786 5.58437C14.0895 5.5861 13.8005 5.58739 13.5115 5.5882C13.3717 5.58861 13.2319 5.58916 13.0922 5.59005C12.9703 5.59083 12.8485 5.59133 12.7266 5.59151C12.6621 5.59161 12.5976 5.59189 12.5331 5.59242C12.4611 5.59298 12.389 5.59306 12.317 5.59303C12.285 5.59345 12.285 5.59345 12.2524 5.59388C12.1333 5.59323 12.0637 5.5857 11.9731 5.50603C11.9038 5.42719 11.8892 5.35826 11.8907 5.25327C11.9013 5.15336 11.9569 5.08085 12.0317 5.01775C12.093 4.99733 12.1361 4.99561 12.2004 4.99534Z" fill="#274463"/>
<path d="M5.29072 4.99108C5.31369 4.99089 5.33666 4.99069 5.36033 4.99049C5.38536 4.99058 5.41039 4.99067 5.43619 4.99076C5.46295 4.99065 5.48971 4.99051 5.51648 4.99035C5.58903 4.99 5.66159 4.99003 5.73415 4.99014C5.79477 4.9902 5.85539 4.99008 5.91601 4.98996C6.05905 4.98969 6.20209 4.98972 6.34513 4.98994C6.49259 4.99016 6.64004 4.98989 6.7875 4.98937C6.91421 4.98893 7.04092 4.9888 7.16764 4.98892C7.24327 4.98898 7.3189 4.98894 7.39453 4.9886C7.46566 4.9883 7.53678 4.98838 7.60792 4.98874C7.64638 4.98885 7.68484 4.98857 7.72331 4.98828C7.93354 4.99003 7.93354 4.99003 8.02752 5.07678C8.09677 5.15558 8.11157 5.22456 8.10984 5.32954C8.10052 5.41877 8.06217 5.47328 7.997 5.5321C7.9304 5.57821 7.89746 5.58702 7.81739 5.58694C7.79778 5.58697 7.77817 5.58699 7.75797 5.58702C7.73638 5.58695 7.71478 5.58688 7.69254 5.58681C7.66986 5.58681 7.64719 5.58681 7.62382 5.58682C7.54858 5.5868 7.47334 5.58665 7.39809 5.5865C7.34604 5.58646 7.29398 5.58643 7.24193 5.58641C7.11874 5.58635 6.99554 5.58619 6.87235 5.586C6.73211 5.58578 6.59188 5.58567 6.45164 5.58557C6.16313 5.58537 5.87462 5.58502 5.58611 5.58459C5.58618 5.59646 5.58625 5.60833 5.58633 5.62056C5.58805 5.90959 5.58935 6.19861 5.59016 6.48764C5.59056 6.62741 5.59111 6.76718 5.592 6.90695C5.59278 7.0288 5.59329 7.15064 5.59346 7.27249C5.59356 7.33699 5.59384 7.40148 5.59437 7.46598C5.59494 7.53804 5.59501 7.61009 5.59498 7.68215C5.59526 7.70346 5.59554 7.72477 5.59583 7.74673C5.59518 7.86579 5.58765 7.93543 5.50798 8.026C5.42918 8.09525 5.3602 8.11005 5.25522 8.10832C5.166 8.09901 5.11148 8.06065 5.05266 7.99548C5.00327 7.92413 4.99766 7.88744 4.9973 7.80109C4.99716 7.7782 4.99702 7.75531 4.99687 7.73172C4.99682 7.70648 4.99677 7.68124 4.99671 7.65523C4.99659 7.62847 4.99646 7.60172 4.99633 7.57496C4.99599 7.50216 4.99578 7.42936 4.99562 7.35656C4.99552 7.31107 4.9954 7.26559 4.99528 7.22011C4.9949 7.0778 4.99463 6.93549 4.99446 6.79319C4.99427 6.62892 4.99376 6.46465 4.99297 6.30038C4.99238 6.17343 4.99209 6.04647 4.99203 5.91951C4.99198 5.84368 4.99181 5.76785 4.99131 5.69203C4.99086 5.62065 4.99078 5.54929 4.99098 5.47792C4.99099 5.43931 4.99062 5.40071 4.99023 5.36211C4.9915 5.14634 4.9915 5.14634 5.0783 5.05725C5.15147 5.00508 5.20129 4.99129 5.29072 4.99108Z" fill="#274463"/>
</g>
<defs>
<clipPath id="clip0_6487_39033">
<rect width="10" height="10" fill="white" transform="translate(5 5)"/>
</clipPath>
</defs>
</svg>
