<svg width="13" height="13" viewBox="0 0 13 13" fill="none" xmlns="http://www.w3.org/2000/svg">
<path d="M11.483 4.55016C11.7538 4.756 11.9163 5.07558 11.9163 5.41683V10.8335C11.9163 11.1208 11.8022 11.3964 11.599 11.5995C11.3959 11.8027 11.1203 11.9168 10.833 11.9168H2.16634C1.87902 11.9168 1.60347 11.8027 1.40031 11.5995C1.19714 11.3964 1.08301 11.1208 1.08301 10.8335V5.41683C1.08301 5.24865 1.12217 5.08277 1.19738 4.93235C1.27259 4.78192 1.3818 4.65107 1.51634 4.55016L5.84967 1.30016C6.0372 1.15952 6.26527 1.0835 6.49967 1.0835C6.73408 1.0835 6.96215 1.15952 7.14967 1.30016L11.483 4.55016Z" stroke="#5A7099" stroke-width="1.08333" stroke-linecap="round" stroke-linejoin="round"/>
<path d="M11.9163 5.4165L7.05759 8.504C6.89036 8.60878 6.69701 8.66434 6.49967 8.66434C6.30234 8.66434 6.10899 8.60878 5.94176 8.504L1.08301 5.4165" stroke="#5A7099" stroke-width="1.08333" stroke-linecap="round" stroke-linejoin="round"/>
</svg>
