<svg width="16" height="16" viewBox="0 0 16 16" fill="none" xmlns="http://www.w3.org/2000/svg">
<path d="M6.65173 12.9838C6.70307 12.9835 6.70307 12.9835 6.75545 12.9832C6.87018 12.9827 6.98488 12.9831 7.09961 12.9835C7.18184 12.9833 7.26408 12.9831 7.34631 12.9828C7.54651 12.9822 7.74669 12.9824 7.94688 12.9827C8.10959 12.983 8.2723 12.9831 8.43501 12.9829C8.45818 12.9829 8.48134 12.9829 8.50521 12.9829C8.55227 12.9828 8.59932 12.9828 8.64638 12.9827C9.08758 12.9824 9.52877 12.9828 9.96996 12.9835C10.3485 12.984 10.727 12.9839 11.1055 12.9833C11.5451 12.9827 11.9847 12.9824 12.4243 12.9828C12.4712 12.9828 12.5181 12.9829 12.565 12.9829C12.5996 12.9829 12.5996 12.9829 12.6349 12.983C12.7974 12.9831 12.9599 12.9829 13.1224 12.9826C13.3411 12.9822 13.5599 12.9825 13.7786 12.9832C13.859 12.9834 13.9393 12.9833 14.0197 12.9831C14.1292 12.9827 14.2387 12.9831 14.3483 12.9838C14.3802 12.9835 14.4121 12.9832 14.445 12.9829C14.6254 12.9849 14.7327 13.0023 14.875 13.1246C14.9884 13.244 15.0097 13.3397 15.0156 13.4996C15.0097 13.6596 14.9884 13.7553 14.875 13.8746C14.7053 14.0206 14.5617 14.0174 14.3483 14.0155C14.314 14.0157 14.2798 14.0159 14.2445 14.0161C14.1298 14.0166 14.0151 14.0162 13.9004 14.0158C13.8182 14.016 13.7359 14.0162 13.6537 14.0165C13.4535 14.017 13.2533 14.0169 13.0531 14.0166C12.8904 14.0163 12.7277 14.0162 12.565 14.0164C12.5418 14.0164 12.5187 14.0164 12.4948 14.0164C12.4477 14.0165 12.4007 14.0165 12.3536 14.0165C11.9124 14.0169 11.4712 14.0165 11.03 14.0158C10.6515 14.0153 10.273 14.0154 9.89453 14.0159C9.45491 14.0166 9.01529 14.0169 8.57567 14.0165C8.52878 14.0164 8.4819 14.0164 8.43501 14.0164C8.40041 14.0163 8.40041 14.0163 8.36511 14.0163C8.20261 14.0162 8.04011 14.0164 7.87761 14.0167C7.65887 14.0171 7.44013 14.0168 7.22139 14.0161C7.14104 14.0159 7.06069 14.0159 6.98035 14.0162C6.8708 14.0166 6.76128 14.0161 6.65173 14.0155C6.61982 14.0158 6.58791 14.0161 6.55503 14.0164C6.37456 14.0144 6.26728 13.997 6.125 13.8746C6.01161 13.7553 5.99031 13.6596 5.98438 13.4996C5.99031 13.3397 6.01161 13.244 6.125 13.1246C6.29474 12.9786 6.43834 12.9819 6.65173 12.9838Z" fill="#8F8F8F"/>
<path d="M6.65173 8.48377C6.70307 8.48348 6.70307 8.48348 6.75545 8.48318C6.87018 8.48268 6.98488 8.48307 7.09961 8.48347C7.18184 8.4833 7.26408 8.48307 7.34631 8.4828C7.54651 8.48225 7.74669 8.48237 7.94688 8.48273C8.10959 8.48301 8.2723 8.48305 8.43501 8.48291C8.45818 8.4829 8.48134 8.48288 8.50521 8.48286C8.55227 8.48282 8.59932 8.48278 8.64638 8.48273C9.08758 8.48238 9.52877 8.48279 9.96996 8.48346C10.3485 8.48402 10.727 8.48392 11.1055 8.48334C11.5451 8.48268 11.9847 8.48241 12.4243 8.4828C12.4712 8.48284 12.5181 8.48288 12.565 8.48291C12.5996 8.48294 12.5996 8.48294 12.6349 8.48297C12.7974 8.48308 12.9599 8.4829 13.1224 8.4826C13.3411 8.48222 13.5599 8.48249 13.7786 8.48322C13.859 8.48338 13.9393 8.48333 14.0197 8.48306C14.1292 8.48272 14.2387 8.48314 14.3483 8.48377C14.3802 8.48349 14.4121 8.48321 14.445 8.48292C14.6254 8.48492 14.7327 8.50226 14.875 8.62464C14.9884 8.74399 15.0097 8.83973 15.0156 8.99964C15.0097 9.15955 14.9884 9.25529 14.875 9.37464C14.7053 9.52064 14.5617 9.51738 14.3483 9.51551C14.314 9.51571 14.2798 9.5159 14.2445 9.51611C14.1298 9.5166 14.0151 9.51621 13.9004 9.51582C13.8182 9.51598 13.7359 9.51621 13.6537 9.51648C13.4535 9.51703 13.2533 9.51692 13.0531 9.51655C12.8904 9.51627 12.7277 9.51623 12.565 9.51637C12.5418 9.51639 12.5187 9.51641 12.4948 9.51643C12.4477 9.51647 12.4007 9.51651 12.3536 9.51655C11.9124 9.5169 11.4712 9.51649 11.03 9.51582C10.6515 9.51526 10.273 9.51536 9.89453 9.51594C9.45491 9.51661 9.01529 9.51687 8.57567 9.51649C8.52878 9.51645 8.4819 9.51641 8.43501 9.51637C8.40041 9.51634 8.40041 9.51634 8.36511 9.51631C8.20261 9.5162 8.04011 9.51638 7.87761 9.51668C7.65887 9.51707 7.44013 9.51679 7.22139 9.51607C7.14104 9.5159 7.06069 9.51595 6.98035 9.51622C6.8708 9.51656 6.76128 9.51614 6.65173 9.51551C6.61982 9.51579 6.58791 9.51607 6.55503 9.51636C6.37456 9.51436 6.26728 9.49702 6.125 9.37464C6.01161 9.25529 5.99031 9.15955 5.98438 8.99964C5.99031 8.83973 6.01161 8.74399 6.125 8.62464C6.29474 8.47864 6.43834 8.4819 6.65173 8.48377Z" fill="#8F8F8F"/>
<path d="M6.65173 3.98377C6.70307 3.98348 6.70307 3.98348 6.75545 3.98318C6.87018 3.98268 6.98488 3.98307 7.09961 3.98347C7.18184 3.9833 7.26408 3.98307 7.34631 3.9828C7.54651 3.98225 7.74669 3.98237 7.94688 3.98273C8.10959 3.98301 8.2723 3.98305 8.43501 3.98291C8.45818 3.9829 8.48134 3.98288 8.50521 3.98286C8.55227 3.98282 8.59932 3.98278 8.64638 3.98273C9.08758 3.98238 9.52877 3.98279 9.96996 3.98346C10.3485 3.98402 10.727 3.98392 11.1055 3.98334C11.5451 3.98268 11.9847 3.98241 12.4243 3.9828C12.4712 3.98284 12.5181 3.98288 12.565 3.98291C12.5996 3.98294 12.5996 3.98294 12.6349 3.98297C12.7974 3.98308 12.9599 3.9829 13.1224 3.9826C13.3411 3.98222 13.5599 3.98249 13.7786 3.98322C13.859 3.98338 13.9393 3.98333 14.0197 3.98306C14.1292 3.98272 14.2387 3.98314 14.3483 3.98377C14.3802 3.98349 14.4121 3.98321 14.445 3.98292C14.6254 3.98492 14.7327 4.00226 14.875 4.12464C14.9884 4.24399 15.0097 4.33973 15.0156 4.49964C15.0097 4.65955 14.9884 4.75529 14.875 4.87464C14.7053 5.02064 14.5617 5.01738 14.3483 5.01551C14.314 5.01571 14.2798 5.0159 14.2445 5.01611C14.1298 5.0166 14.0151 5.01621 13.9004 5.01582C13.8182 5.01598 13.7359 5.01621 13.6537 5.01648C13.4535 5.01703 13.2533 5.01692 13.0531 5.01655C12.8904 5.01627 12.7277 5.01623 12.565 5.01637C12.5418 5.01639 12.5187 5.01641 12.4948 5.01643C12.4477 5.01647 12.4007 5.01651 12.3536 5.01655C11.9124 5.0169 11.4712 5.01649 11.03 5.01582C10.6515 5.01526 10.273 5.01536 9.89453 5.01594C9.45491 5.01661 9.01529 5.01687 8.57567 5.01649C8.52878 5.01645 8.4819 5.01641 8.43501 5.01637C8.40041 5.01634 8.40041 5.01634 8.36511 5.01631C8.20261 5.0162 8.04011 5.01638 7.87761 5.01668C7.65887 5.01707 7.44013 5.01679 7.22139 5.01607C7.14104 5.0159 7.06069 5.01595 6.98035 5.01622C6.8708 5.01656 6.76128 5.01614 6.65173 5.01551C6.61982 5.01579 6.58791 5.01607 6.55503 5.01636C6.37456 5.01436 6.26728 4.99702 6.125 4.87464C6.01161 4.75529 5.99031 4.65955 5.98438 4.49964C5.99031 4.33973 6.01161 4.24399 6.125 4.12464C6.29474 3.97864 6.43834 3.9819 6.65173 3.98377Z" fill="#8F8F8F"/>
<path d="M2.04839 10.9834C2.07128 10.9832 2.09417 10.9829 2.11775 10.9827C2.19295 10.9822 2.26811 10.9825 2.34331 10.983C2.39584 10.9829 2.44837 10.9828 2.5009 10.9826C2.61081 10.9824 2.72071 10.9827 2.83061 10.9833C2.97122 10.984 3.11179 10.9836 3.25239 10.9828C3.36081 10.9824 3.46922 10.9825 3.57764 10.9828C3.62947 10.9829 3.6813 10.9828 3.73312 10.9825C3.80568 10.9822 3.87818 10.9827 3.95073 10.9834C3.99194 10.9835 4.03315 10.9836 4.07561 10.9837C4.24801 11.0082 4.3371 11.0801 4.44777 11.2114C4.50987 11.3321 4.51541 11.4129 4.51573 11.5484C4.51595 11.5713 4.51617 11.5942 4.5164 11.6178C4.51694 11.693 4.51658 11.7681 4.51616 11.8433C4.51624 11.8958 4.51637 11.9484 4.51652 12.0009C4.51671 12.1108 4.51644 12.2207 4.51586 12.3306C4.51514 12.4712 4.51555 12.6118 4.5163 12.7524C4.51675 12.8608 4.51661 12.9692 4.51629 13.0776C4.5162 13.1295 4.5163 13.1813 4.5166 13.2331C4.51691 13.3057 4.51643 13.3782 4.51573 13.4507C4.51563 13.4919 4.51553 13.5331 4.51543 13.5756C4.49088 13.748 4.41897 13.8371 4.28777 13.9478C4.16701 14.0099 4.08619 14.0154 3.95073 14.0157C3.92784 14.016 3.90495 14.0162 3.88136 14.0164C3.80617 14.0169 3.73101 14.0166 3.65581 14.0162C3.60328 14.0162 3.55075 14.0164 3.49822 14.0165C3.38831 14.0167 3.27841 14.0164 3.1685 14.0159C3.0279 14.0151 2.88733 14.0156 2.74673 14.0163C2.63831 14.0168 2.5299 14.0166 2.42148 14.0163C2.36965 14.0162 2.31782 14.0163 2.26599 14.0166C2.19344 14.0169 2.12094 14.0164 2.04839 14.0157C2.00718 14.0156 1.96597 14.0155 1.92351 14.0154C1.75111 13.9909 1.66202 13.919 1.55135 13.7878C1.48925 13.667 1.48371 13.5862 1.48338 13.4507C1.48317 13.4278 1.48295 13.4049 1.48272 13.3814C1.48217 13.3062 1.48253 13.231 1.48296 13.1558C1.48287 13.1033 1.48275 13.0507 1.48259 12.9982C1.48241 12.8883 1.48268 12.7784 1.48326 12.6685C1.48397 12.5279 1.48356 12.3873 1.48282 12.2467C1.48236 12.1383 1.48251 12.0299 1.48283 11.9215C1.48291 11.8697 1.48281 11.8178 1.48252 11.766C1.4822 11.6934 1.48269 11.6209 1.48338 11.5484C1.48348 11.5072 1.48358 11.466 1.48369 11.4235C1.50824 11.2511 1.58015 11.162 1.71135 11.0514C1.83211 10.9892 1.91293 10.9837 2.04839 10.9834ZM2.49956 11.9996C2.49956 12.3296 2.49956 12.6596 2.49956 12.9996C2.82956 12.9996 3.15956 12.9996 3.49956 12.9996C3.49956 12.6696 3.49956 12.3396 3.49956 11.9996C3.16956 11.9996 2.83956 11.9996 2.49956 11.9996Z" fill="#8F8F8F"/>
<path d="M2.04839 6.48338C2.07128 6.48317 2.09417 6.48295 2.11775 6.48272C2.19295 6.48217 2.26811 6.48253 2.34331 6.48296C2.39584 6.48287 2.44837 6.48275 2.5009 6.48259C2.61081 6.48241 2.72071 6.48268 2.83061 6.48326C2.97122 6.48397 3.11179 6.48356 3.25239 6.48282C3.36081 6.48236 3.46922 6.48251 3.57764 6.48283C3.62947 6.48291 3.6813 6.48281 3.73312 6.48252C3.80568 6.4822 3.87818 6.48269 3.95073 6.48338C3.99194 6.48348 4.03315 6.48358 4.07561 6.48369C4.24801 6.50824 4.3371 6.58015 4.44777 6.71135C4.50987 6.83211 4.51541 6.91293 4.51573 7.04839C4.51595 7.07128 4.51617 7.09417 4.5164 7.11775C4.51694 7.19295 4.51658 7.26811 4.51616 7.34331C4.51624 7.39584 4.51637 7.44837 4.51652 7.5009C4.51671 7.61081 4.51644 7.72071 4.51586 7.83061C4.51514 7.97122 4.51555 8.11179 4.5163 8.25239C4.51675 8.36081 4.51661 8.46922 4.51629 8.57764C4.5162 8.62947 4.5163 8.6813 4.5166 8.73312C4.51691 8.80568 4.51643 8.87818 4.51573 8.95073C4.51563 8.99194 4.51553 9.03315 4.51543 9.07561C4.49088 9.24801 4.41897 9.3371 4.28777 9.44777C4.16701 9.50987 4.08619 9.51541 3.95073 9.51573C3.92784 9.51595 3.90495 9.51617 3.88136 9.5164C3.80617 9.51694 3.73101 9.51658 3.65581 9.51616C3.60328 9.51624 3.55075 9.51637 3.49822 9.51652C3.38831 9.51671 3.27841 9.51644 3.1685 9.51586C3.0279 9.51514 2.88733 9.51555 2.74673 9.5163C2.63831 9.51675 2.5299 9.51661 2.42148 9.51629C2.36965 9.5162 2.31782 9.5163 2.26599 9.5166C2.19344 9.51691 2.12094 9.51643 2.04839 9.51573C2.00718 9.51563 1.96597 9.51553 1.92351 9.51543C1.75111 9.49088 1.66202 9.41897 1.55135 9.28777C1.48925 9.16701 1.48371 9.08619 1.48338 8.95073C1.48317 8.92784 1.48295 8.90495 1.48272 8.88136C1.48217 8.80617 1.48253 8.73101 1.48296 8.65581C1.48287 8.60328 1.48275 8.55075 1.48259 8.49822C1.48241 8.38831 1.48268 8.27841 1.48326 8.1685C1.48397 8.0279 1.48356 7.88733 1.48282 7.74673C1.48236 7.63831 1.48251 7.5299 1.48283 7.42148C1.48291 7.36965 1.48281 7.31782 1.48252 7.26599C1.4822 7.19344 1.48269 7.12094 1.48338 7.04839C1.48348 7.00718 1.48358 6.96597 1.48369 6.92351C1.50824 6.75111 1.58015 6.66202 1.71135 6.55135C1.83211 6.48925 1.91293 6.48371 2.04839 6.48338ZM2.49956 7.49956C2.49956 7.82956 2.49956 8.15956 2.49956 8.49956C2.82956 8.49956 3.15956 8.49956 3.49956 8.49956C3.49956 8.16956 3.49956 7.83956 3.49956 7.49956C3.16956 7.49956 2.83956 7.49956 2.49956 7.49956Z" fill="#8F8F8F"/>
<path d="M4.85547 2.0957C4.97509 2.22956 5.03237 2.35926 5.03052 2.54064C4.97401 2.9042 4.56136 3.19532 4.3136 3.44494C4.29274 3.46597 4.27187 3.487 4.25038 3.50867C4.14017 3.61971 4.02984 3.73064 3.91944 3.84149C3.82845 3.9329 3.73769 4.02453 3.64713 4.11637C3.5372 4.22784 3.4269 4.33892 3.3163 4.44973C3.27442 4.49182 3.23267 4.53405 3.19106 4.57641C3.13283 4.63563 3.07411 4.69435 3.01527 4.75296C2.99839 4.77035 2.98152 4.78774 2.96413 4.80565C2.8329 4.93479 2.68645 5.02536 2.49809 5.0343C2.22786 5.01331 2.05972 4.82021 1.87756 4.64025C1.85447 4.61751 1.83137 4.59478 1.80758 4.57135C1.75898 4.52334 1.71048 4.47525 1.66206 4.42707C1.58823 4.35385 1.51377 4.28133 1.43927 4.2088C1.39197 4.1619 1.3447 4.11497 1.29749 4.06799C1.27532 4.04659 1.25315 4.02519 1.23031 4.00315C1.09092 3.86249 1.00062 3.72994 0.96875 3.53125C0.980406 3.33502 1.03809 3.19601 1.1875 3.0625C1.32565 2.98685 1.45488 2.95615 1.61133 2.98046C1.7789 3.02961 1.87908 3.12792 2 3.25C2.03994 3.28957 2.0799 3.32912 2.11987 3.36865C2.23682 3.4847 2.35299 3.60151 2.46875 3.71875C2.58745 3.66979 2.66073 3.59569 2.74978 3.50434C2.76489 3.48893 2.78 3.47353 2.79557 3.45766C2.82829 3.42429 2.86094 3.39085 2.89353 3.35735C2.94527 3.30422 2.99726 3.25135 3.04934 3.19855C3.19736 3.04843 3.34513 2.89808 3.49223 2.74706C3.58233 2.65459 3.6729 2.56259 3.76377 2.47087C3.79817 2.43597 3.83239 2.4009 3.86643 2.36565C4.16375 2.05795 4.44209 1.84308 4.85547 2.0957Z" fill="#8F8F8F"/>
<path d="M6.73242 10.9843C6.77525 10.9841 6.81807 10.9839 6.8609 10.9836C6.97686 10.983 7.09281 10.9833 7.20878 10.9837C7.33031 10.984 7.45183 10.9837 7.57336 10.9835C7.77743 10.9833 7.98148 10.9836 8.18555 10.9842C8.42125 10.9848 8.65694 10.9846 8.89265 10.9839C9.09525 10.9834 9.29786 10.9833 9.50046 10.9836C9.62137 10.9838 9.74227 10.9838 9.86317 10.9834C9.97686 10.983 10.0905 10.9833 10.2042 10.984C10.2657 10.9843 10.3271 10.9839 10.3886 10.9835C10.7242 10.9867 10.7242 10.9867 10.875 11.1254C10.9884 11.2448 11.0097 11.3405 11.0156 11.5004C11.0097 11.6604 10.9884 11.7561 10.875 11.8754C10.6952 12.0408 10.5021 12.0181 10.2676 12.0166C10.2248 12.0168 10.1819 12.017 10.1391 12.0173C10.0231 12.0179 9.90719 12.0176 9.79122 12.0172C9.66969 12.0169 9.54817 12.0172 9.42664 12.0174C9.22257 12.0176 9.01852 12.0173 8.81445 12.0167C8.57875 12.0161 8.34306 12.0163 8.10735 12.017C7.90475 12.0175 7.70214 12.0176 7.49954 12.0173C7.37863 12.0171 7.25773 12.0171 7.13683 12.0175C7.02314 12.0178 6.90947 12.0176 6.79578 12.0169C6.73432 12.0166 6.67285 12.017 6.61139 12.0174C6.27579 12.0142 6.27579 12.0142 6.125 11.8754C6.01161 11.7561 5.99031 11.6604 5.98438 11.5004C5.99031 11.3405 6.01161 11.2448 6.125 11.1254C6.30478 10.9601 6.49793 10.9828 6.73242 10.9843Z" fill="#8F8F8F"/>
<path d="M6.73242 6.48427C6.77525 6.4841 6.81807 6.48388 6.8609 6.48361C6.97686 6.48304 7.09281 6.48326 7.20878 6.48366C7.33031 6.48397 7.45183 6.48368 7.57336 6.48348C7.77743 6.48326 7.98148 6.48355 8.18555 6.48415C8.42125 6.48483 8.65694 6.48461 8.89265 6.48392C9.09525 6.48335 9.29786 6.48328 9.50046 6.4836C9.62137 6.4838 9.74227 6.48382 9.86317 6.48341C9.97686 6.48305 10.0905 6.4833 10.2042 6.48402C10.2657 6.48427 10.3271 6.4839 10.3886 6.48351C10.7242 6.48672 10.7242 6.48672 10.875 6.62545C10.9884 6.7448 11.0097 6.84053 11.0156 7.00045C11.0097 7.16036 10.9884 7.25609 10.875 7.37545C10.6952 7.54084 10.5021 7.51811 10.2676 7.51662C10.2248 7.51679 10.1819 7.51701 10.1391 7.51729C10.0231 7.51785 9.90719 7.51763 9.79122 7.51724C9.66969 7.51692 9.54817 7.51721 9.42664 7.51741C9.22257 7.51764 9.01852 7.51734 8.81445 7.51674C8.57875 7.51606 8.34306 7.51628 8.10735 7.51697C7.90475 7.51754 7.70214 7.51762 7.49954 7.51729C7.37863 7.5171 7.25773 7.51707 7.13683 7.51748C7.02314 7.51785 6.90947 7.51759 6.79578 7.51687C6.73432 7.51663 6.67285 7.517 6.61139 7.51739C6.27579 7.51417 6.27579 7.51417 6.125 7.37545C6.01161 7.25609 5.99031 7.16036 5.98438 7.00045C5.99031 6.84053 6.01161 6.7448 6.125 6.62545C6.30478 6.46005 6.49793 6.48279 6.73242 6.48427Z" fill="#8F8F8F"/>
<path d="M6.73242 1.98427C6.77525 1.9841 6.81807 1.98388 6.8609 1.98361C6.97686 1.98304 7.09281 1.98326 7.20878 1.98366C7.33031 1.98397 7.45183 1.98368 7.57336 1.98348C7.77743 1.98326 7.98148 1.98355 8.18555 1.98415C8.42125 1.98483 8.65694 1.98461 8.89265 1.98392C9.09525 1.98335 9.29786 1.98328 9.50046 1.9836C9.62137 1.9838 9.74227 1.98382 9.86317 1.98341C9.97686 1.98305 10.0905 1.9833 10.2042 1.98402C10.2657 1.98427 10.3271 1.9839 10.3886 1.98351C10.7242 1.98672 10.7242 1.98672 10.875 2.12545C10.9884 2.2448 11.0097 2.34053 11.0156 2.50045C11.0097 2.66036 10.9884 2.75609 10.875 2.87545C10.6952 3.04084 10.5021 3.01811 10.2676 3.01662C10.2248 3.01679 10.1819 3.01701 10.1391 3.01729C10.0231 3.01785 9.90719 3.01763 9.79122 3.01724C9.66969 3.01692 9.54817 3.01721 9.42664 3.01741C9.22257 3.01764 9.01852 3.01734 8.81445 3.01674C8.57875 3.01606 8.34306 3.01628 8.10735 3.01697C7.90475 3.01754 7.70214 3.01762 7.49954 3.01729C7.37863 3.0171 7.25773 3.01707 7.13683 3.01748C7.02314 3.01785 6.90947 3.01759 6.79578 3.01687C6.73432 3.01663 6.67285 3.017 6.61139 3.01739C6.27579 3.01417 6.27579 3.01417 6.125 2.87545C6.01161 2.75609 5.99031 2.66036 5.98438 2.50045C5.99031 2.34053 6.01161 2.2448 6.125 2.12545C6.30478 1.96005 6.49793 1.98279 6.73242 1.98427Z" fill="#8F8F8F"/>
</svg>
